<svg width="21" height="19" viewBox="0 0 21 19" fill="none" xmlns="http://www.w3.org/2000/svg">
<path d="M20.1693 17.4351C20.1693 18.3117 19.6203 18.8718 18.697 18.8718H2.30303C1.40473 18.8718 0.830811 18.336 0.830811 17.4351V1.43669C0.830811 0.560065 1.37977 0 2.30303 0H18.697C19.5953 0 20.1693 0.535714 20.1693 1.43669V17.4351Z" fill="#007DBE"/>
<path d="M7.04412 0H6.02106V5.84416C5.87135 5.99026 5.74658 6.18507 5.74658 6.40422C5.74658 6.81818 6.09592 7.15909 6.52012 7.15909C6.94431 7.15909 7.29365 6.81818 7.29365 6.40422C7.29365 6.18507 7.19384 5.96591 7.01917 5.84416V0H7.04412ZM6.61993 6.74513C6.59497 6.74513 6.57002 6.74513 6.54507 6.74513C6.52012 6.74513 6.49516 6.74513 6.47021 6.74513C6.29554 6.72078 6.19573 6.57468 6.19573 6.40422C6.19573 6.20942 6.3704 6.03896 6.57002 6.03896C6.76964 6.03896 6.94431 6.20942 6.94431 6.40422C6.89441 6.57468 6.76964 6.72078 6.61993 6.74513Z" fill="white"/>
<path d="M4.12457 0H3.10151V3.40909C2.92684 3.55519 2.82703 3.75 2.82703 3.96916C2.82703 4.38312 3.17637 4.72403 3.60056 4.72403C4.02476 4.72403 4.3741 4.38312 4.3741 3.96916C4.3741 3.75 4.27429 3.53084 4.09962 3.40909V0H4.12457ZM3.70037 4.33441C3.67542 4.33441 3.65047 4.33441 3.62552 4.33441C3.60056 4.33441 3.57561 4.33441 3.55066 4.33441C3.37599 4.28571 3.27618 4.16396 3.27618 3.99351C3.27618 3.7987 3.45085 3.62825 3.65047 3.62825C3.85009 3.62825 4.02476 3.7987 4.02476 3.99351C3.97486 4.13961 3.87504 4.28571 3.70037 4.33441Z" fill="white"/>
<path d="M18.7718 3.55519V0C18.7469 0 18.7219 0 18.6969 0H17.7487V3.55519C17.599 3.7013 17.4742 3.8961 17.4742 4.11526C17.4742 4.52922 17.8236 4.87013 18.2478 4.87013C18.672 4.87013 19.0213 4.52922 19.0213 4.11526C19.0463 3.8961 18.9465 3.7013 18.7718 3.55519ZM18.3476 4.45617C18.3226 4.45617 18.2977 4.45617 18.2727 4.45617C18.2478 4.45617 18.2228 4.45617 18.1979 4.45617C18.0232 4.43182 17.9234 4.28571 17.9234 4.11526C17.9234 3.92045 18.0981 3.75 18.2977 3.75C18.4973 3.75 18.672 3.92045 18.672 4.11526C18.6221 4.28571 18.4973 4.43182 18.3476 4.45617Z" fill="white"/>
<path d="M15.8524 0H14.8293V1.12013C14.6546 1.26623 14.5548 1.46104 14.5548 1.68019C14.5548 2.09416 14.9041 2.43506 15.3284 2.43506C15.7526 2.43506 16.1019 2.09416 16.1019 1.68019C16.1019 1.46104 16.0021 1.24188 15.8274 1.12013V0H15.8524ZM15.4282 2.04545C15.4032 2.04545 15.3783 2.04545 15.3533 2.04545C15.3284 2.04545 15.3034 2.04545 15.2784 2.04545C15.1038 2.0211 15.004 1.875 15.004 1.70455C15.004 1.50974 15.1786 1.33929 15.3783 1.33929C15.5779 1.33929 15.7526 1.50974 15.7526 1.70455C15.7276 1.85065 15.6028 1.99675 15.4282 2.04545Z" fill="white"/>
<path d="M9.93863 8.32793C9.51443 8.32793 9.1651 8.66884 9.1651 9.0828C9.1651 9.3263 9.2649 9.52111 9.43957 9.66721V15.5114H9.28986L4.17454 10.2516C3.99987 10.0568 3.70043 9.91072 3.42595 9.91072H2.9768C2.57756 9.91072 2.22822 10.2273 2.22822 10.6169V15.4383C2.0785 15.5844 1.95374 15.7792 1.95374 15.9984C1.95374 16.4123 2.30308 16.7533 2.72727 16.7533C3.15147 16.7533 3.50081 16.4123 3.50081 15.9984C3.50081 15.7792 3.401 15.5601 3.22633 15.4383V10.9091H3.37604C3.37604 10.9091 3.37605 10.9091 3.401 10.9091L8.49137 16.1688C8.66604 16.3636 8.96547 16.5097 9.23995 16.5097H9.6891C10.0883 16.5097 10.4127 16.1932 10.4127 15.7792V9.66721C10.5625 9.52111 10.6872 9.3263 10.6872 9.10715C10.7122 8.66884 10.3628 8.32793 9.93863 8.32793ZM2.82708 16.3636C2.80213 16.3636 2.77718 16.3636 2.75222 16.3636C2.72727 16.3636 2.70232 16.3636 2.67737 16.3636C2.5027 16.3393 2.37793 16.1932 2.37793 16.0227C2.37793 15.8279 2.5526 15.6575 2.75222 15.6575C2.95185 15.6575 3.12652 15.8279 3.12652 16.0227C3.10156 16.1688 2.9768 16.3149 2.82708 16.3636ZM9.93863 9.44806C9.73901 9.44806 9.56434 9.2776 9.56434 9.0828C9.56434 8.91234 9.71406 8.74189 9.88872 8.74189C9.91368 8.74189 9.91368 8.74189 9.93863 8.74189C9.96358 8.74189 9.96358 8.74189 9.98853 8.74189C10.1632 8.76624 10.3129 8.91234 10.3129 9.0828C10.3129 9.30195 10.1383 9.44806 9.93863 9.44806Z" fill="white"/>
<path d="M17.4245 12.711H12.4838C12.1345 12.711 11.86 12.4432 11.86 12.1023V11.4935C11.86 11.1526 12.1345 10.8847 12.4838 10.8847H17.6989C17.8486 11.0552 18.0483 11.1526 18.2728 11.1526C18.697 11.1526 19.0464 10.8117 19.0464 10.3977C19.0464 9.98377 18.697 9.64286 18.2728 9.64286C18.0483 9.64286 17.8237 9.74026 17.6989 9.91072H12.4838C11.5855 9.91072 10.8369 10.6169 10.8369 11.5179V12.1266C10.8369 13.0032 11.5605 13.7338 12.4838 13.7338H17.4245C17.7738 13.7338 18.0483 14.0016 18.0483 14.3425V14.9513C18.0483 15.2922 17.7738 15.5601 17.4245 15.5601H12.1844C12.0346 15.414 11.835 15.2922 11.6104 15.2922C11.1863 15.2922 10.8369 15.6331 10.8369 16.0471C10.8369 16.461 11.1863 16.8019 11.6104 16.8019C11.835 16.8019 12.0596 16.7045 12.1844 16.5341H17.4245C18.3228 16.5341 19.0464 15.8279 19.0464 14.9269V14.3182C19.0464 13.4416 18.3228 12.711 17.4245 12.711ZM18.2728 10.0568C18.4475 10.0568 18.5972 10.1786 18.6222 10.349C18.6222 10.3734 18.6222 10.3977 18.6222 10.4221C18.6222 10.4464 18.6222 10.4708 18.6222 10.4951C18.5972 10.6656 18.4475 10.7873 18.2728 10.7873C18.0732 10.7873 17.8986 10.6169 17.8986 10.4221C17.8986 10.2029 18.0732 10.0568 18.2728 10.0568ZM11.6104 16.3636C11.4358 16.3636 11.311 16.2419 11.2611 16.0958C11.2611 16.0714 11.2362 16.0227 11.2362 15.9984C11.2362 15.974 11.2362 15.9253 11.2611 15.901C11.311 15.7549 11.4358 15.6331 11.6104 15.6331C11.8101 15.6331 11.9847 15.8036 11.9847 15.9984C11.9598 16.2175 11.8101 16.3636 11.6104 16.3636Z" fill="white"/>
</svg>
