<svg width="21" height="20" viewBox="0 0 21 20" fill="none" xmlns="http://www.w3.org/2000/svg">
<rect opacity="0.2" width="20.0328" height="19.2623" fill="#BDBDBD"/>
<g clip-path="url(#clip0_1_236)">
<path d="M14.8361 8.41452H14.836C14.836 8.21883 14.995 8.05989 15.1907 8.05989C15.3864 8.05989 15.5453 8.21881 15.5453 8.41452V13.3084C15.5453 13.732 15.3721 14.1169 15.0936 14.3951C14.8151 14.6735 14.4306 14.8467 14.007 14.8467H6.79306C6.36947 14.8467 5.9849 14.6735 5.70649 14.395M14.8361 8.41452L5.77721 14.3243M14.8361 8.41452V8.41425H14.9322M14.8361 8.41452L14.9322 8.41425M14.8361 8.41452V13.3082C14.8361 13.5357 14.743 13.7429 14.5924 13.8935M14.8361 8.41452L14.5924 13.8935M5.70649 14.395L5.77721 14.3243M5.70649 14.395C5.70649 14.395 5.7065 14.395 5.7065 14.395L5.77721 14.3243M5.70649 14.395C5.42801 14.1165 5.2548 13.732 5.2548 13.3084V6.09446C5.2548 5.67088 5.42801 5.28631 5.7065 5.0079M5.77721 14.3243C5.51656 14.0636 5.3548 13.7042 5.3548 13.3084V6.09446C5.3548 5.69866 5.51656 5.33918 5.77721 5.07861M5.7065 5.0079L5.77721 5.07861M5.7065 5.0079C5.7065 5.00789 5.70651 5.00789 5.70651 5.00789M5.7065 5.0079L5.70651 5.00789M5.77721 5.07861L5.70651 5.00789M5.77721 5.07861L5.70651 5.00789M5.70651 5.00789C5.98499 4.72941 6.36949 4.5562 6.79306 4.5562H11.7177C11.9134 4.5562 12.0723 4.71513 12.0723 4.91083C12.0723 5.10654 11.9134 5.26547 11.7177 5.26547H6.79306C6.56559 5.26547 6.35871 5.35845 6.20802 5.50914C6.05741 5.65974 5.96435 5.86702 5.96435 6.09418V13.3082C5.96435 13.5357 6.05736 13.7429 6.208 13.8935L6.20802 13.8935C6.35862 14.0441 6.5659 14.1372 6.79306 14.1372H14.007C14.2344 14.1372 14.4417 14.0439 14.5924 13.8935M5.70651 5.00789L14.5924 13.8935M14.9361 8.41064C14.9382 8.27195 15.0515 8.15989 15.1907 8.15989C15.3311 8.15989 15.4453 8.27404 15.4453 8.41452V13.3084C15.4453 13.7042 15.2836 14.064 15.0229 14.3243L14.9361 8.41064ZM14.9361 8.41064L14.8363 8.40703L14.8363 8.40731L14.9322 8.41425M14.9361 8.41064L14.9322 8.41425M14.853 4.24411L14.8534 4.24414L14.6666 4.05737C14.528 3.9188 14.3036 3.91879 14.165 4.05737L14.165 4.05737L8.36902 9.85336L8.2983 9.92407L8.30882 9.93459C8.29057 9.96805 8.2774 10.005 8.27059 10.0446L8.36914 10.0615L8.27059 10.0446L7.94957 11.9093C7.94193 11.9495 7.94099 11.9919 7.94837 12.0348M14.853 4.24411L16.2152 6.10781L10.4193 11.9037C10.3617 11.9613 10.2889 11.9951 10.2136 12.0048L8.35716 12.3243L8.35701 12.3243C8.16429 12.3572 7.98098 12.2276 7.94837 12.0348M14.853 4.24411L16.2153 5.60646C16.3538 5.74491 16.354 5.96936 16.2153 6.10768L14.853 4.24411ZM7.94837 12.0348C7.94837 12.0348 7.94836 12.0347 7.94835 12.0347L8.04696 12.018L7.94841 12.035C7.9484 12.0349 7.94839 12.0349 7.94837 12.0348ZM14.4154 4.80967L15.4631 5.85735L9.99704 11.3234L8.73161 11.541L8.94953 10.2755L14.4154 4.80967Z" fill="#0F75BC" stroke="#0F75BC" stroke-width="0.2"/>
</g>
<defs>
<clipPath id="clip0_1_236">
<rect width="13.8689" height="13.8689" fill="white" transform="translate(3.85246 3.85245)"/>
</clipPath>
</defs>
</svg>
