<svg width="12" height="12" viewBox="0 0 12 12" fill="none" xmlns="http://www.w3.org/2000/svg">
<path d="M7.68137 11.6393C8.71385 11.6393 9.54256 10.8378 9.5833 9.80524L9.80069 3.09401H10.8196C10.969 3.09401 11.0913 2.97176 11.0913 2.82232C11.0913 2.67288 10.969 2.55063 10.8196 2.55063H7.96664V1.93931C7.96664 1.34153 7.47757 0.852448 6.87978 0.852448H4.81486C4.21707 0.852448 3.72799 1.34153 3.72799 1.93931V2.55063H0.861453C0.712008 2.55063 0.589767 2.67288 0.589767 2.82232C0.589767 2.97176 0.712015 3.09401 0.861453 3.09401H1.88037L2.09776 9.80524C2.1385 10.8377 2.96723 11.6393 3.99968 11.6393H7.68137ZM4.27142 1.93929C4.27142 1.64041 4.51591 1.39592 4.81479 1.39592H6.87981C7.17869 1.39592 7.42318 1.64041 7.42318 1.93929V2.55061H4.27134L4.27142 1.93929ZM2.65472 9.77812L2.43733 3.08047H9.27083L9.03998 9.77812C9.01279 10.5117 8.415 11.0959 7.68144 11.0959H4.01335C3.27969 11.0959 2.6819 10.5252 2.6547 9.77812H2.65472Z" fill="#EB5757"/>
<path d="M5.84728 9.35699C5.99672 9.35699 6.11896 9.23474 6.11896 9.08531V5.02324C6.11896 4.8738 5.99672 4.75156 5.84728 4.75156C5.69784 4.75156 5.57559 4.8738 5.57559 5.02324V9.08531C5.57559 9.23465 5.69784 9.35689 5.84728 9.35689V9.35699Z" fill="#EB5757"/>
<path d="M4.21703 9.35699C4.36647 9.35699 4.48871 9.23474 4.48871 9.08531V5.02324C4.48871 4.8738 4.36647 4.75156 4.21703 4.75156C4.06758 4.75156 3.94534 4.8738 3.94534 5.02324V9.08531C3.94534 9.23465 4.06759 9.35689 4.21703 9.35689V9.35699Z" fill="#EB5757"/>
<path d="M7.47753 9.35699C7.62697 9.35699 7.74921 9.23474 7.74921 9.08531V5.02324C7.74921 4.8738 7.62696 4.75156 7.47753 4.75156C7.32808 4.75156 7.20584 4.8738 7.20584 5.02324V9.08531C7.20584 9.23465 7.32809 9.35689 7.47753 9.35689V9.35699Z" fill="#EB5757"/>
</svg>
