<svg width="15" height="15" viewBox="0 0 15 15" fill="none" xmlns="http://www.w3.org/2000/svg">
<g clip-path="url(#clip0_1_253)">
<path d="M11.8361 5.41452H11.836C11.836 5.21883 11.995 5.05989 12.1907 5.05989C12.3864 5.05989 12.5453 5.21881 12.5453 5.41452V10.3084C12.5453 10.732 12.3721 11.1169 12.0936 11.3951C11.8151 11.6735 11.4306 11.8467 11.007 11.8467H3.79306C3.36947 11.8467 2.9849 11.6735 2.70649 11.395M11.8361 5.41452L2.77721 11.3243M11.8361 5.41452V5.41425H11.9322M11.8361 5.41452L11.9322 5.41425M11.8361 5.41452V10.3082C11.8361 10.5357 11.743 10.7429 11.5924 10.8935M11.8361 5.41452L11.5924 10.8935M2.70649 11.395L2.77721 11.3243M2.70649 11.395C2.70649 11.395 2.7065 11.395 2.7065 11.395L2.77721 11.3243M2.70649 11.395C2.42801 11.1165 2.2548 10.732 2.2548 10.3084V3.09446C2.2548 2.67088 2.42801 2.28631 2.7065 2.0079M2.77721 11.3243C2.51656 11.0636 2.3548 10.7042 2.3548 10.3084V3.09446C2.3548 2.69866 2.51656 2.33918 2.77721 2.07861M2.7065 2.0079L2.77721 2.07861M2.7065 2.0079C2.7065 2.00789 2.70651 2.00789 2.70651 2.00789M2.7065 2.0079L2.70651 2.00789M2.77721 2.07861L2.70651 2.00789M2.77721 2.07861L2.70651 2.00789M2.70651 2.00789C2.98499 1.72941 3.36949 1.5562 3.79306 1.5562H8.7177C8.91339 1.5562 9.07233 1.71513 9.07233 1.91083C9.07233 2.10654 8.9134 2.26547 8.7177 2.26547H3.79306C3.56559 2.26547 3.35871 2.35845 3.20802 2.50914C3.05741 2.65974 2.96435 2.86702 2.96435 3.09418V10.3082C2.96435 10.5357 3.05736 10.7429 3.208 10.8935L3.20802 10.8935C3.35862 11.0441 3.5659 11.1372 3.79306 11.1372H11.007C11.2344 11.1372 11.4417 11.0439 11.5924 10.8935M2.70651 2.00789L11.5924 10.8935M11.9361 5.41064C11.9382 5.27195 12.0515 5.15989 12.1907 5.15989C12.3311 5.15989 12.4453 5.27404 12.4453 5.41452V10.3084C12.4453 10.7042 12.2836 11.064 12.0229 11.3243L11.9361 5.41064ZM11.9361 5.41064L11.8363 5.40703L11.8363 5.40731L11.9322 5.41425M11.9361 5.41064L11.9322 5.41425M11.853 1.24411L11.8534 1.24414L11.6666 1.05737C11.528 0.918795 11.3036 0.918789 11.165 1.05737L11.165 1.05737L5.36902 6.85336L5.2983 6.92407L5.30882 6.93459C5.29057 6.96805 5.2774 7.00502 5.27059 7.04456L5.36914 7.06152L5.27059 7.04456L4.94957 8.90929C4.94193 8.94948 4.94099 8.99187 4.94837 9.03481M11.853 1.24411L13.2152 3.10781L7.41933 8.90367C7.36167 8.96133 7.28887 8.99509 7.21357 9.0048L5.35716 9.32429L5.35701 9.32431C5.16429 9.35717 4.98098 9.22759 4.94837 9.03481M11.853 1.24411L13.2153 2.60646C13.3538 2.74491 13.354 2.96936 13.2153 3.10768L11.853 1.24411ZM4.94837 9.03481C4.94837 9.03476 4.94836 9.0347 4.94835 9.03465L5.04696 9.01802L4.94841 9.03502C4.9484 9.03495 4.94839 9.03488 4.94837 9.03481ZM11.4154 1.80967L12.4631 2.85735L6.99704 8.3234L5.73161 8.54099L5.94953 7.27554L11.4154 1.80967Z" fill="#0F75BC" stroke="#0F75BC" stroke-width="0.2"/>
</g>
<defs>
<clipPath id="clip0_1_253">
<rect width="13.8689" height="13.8689" fill="white" transform="translate(0.852455 0.852448)"/>
</clipPath>
</defs>
</svg>
